<svg width="20" height="20" viewBox="0 0 20 20" fill="none" xmlns="http://www.w3.org/2000/svg">
<path d="M15.8673 3.13333C14.9954 2.26625 14.5149 1.1527 14.5153 0H10.574V13.7778C10.5436 14.5234 10.1822 15.2296 9.56603 15.7477C8.94982 16.2658 8.12685 16.5555 7.27041 16.5556C5.45918 16.5556 3.95408 15.2667 3.95408 13.6667C3.95408 11.7556 6.07143 10.3222 8.25255 10.9111V7.4C3.85204 6.88889 0 9.86667 0 13.6667C0 17.3667 3.52041 20 7.25765 20C11.2628 20 14.5153 17.1667 14.5153 13.6667V6.67778C16.1135 7.67761 18.0324 8.21405 20 8.21111V4.77778C20 4.77778 17.602 4.87778 15.8673 3.13333Z" fill="white"/>
</svg>
