<svg width="22" height="22" viewBox="0 0 22 22" fill="none" xmlns="http://www.w3.org/2000/svg">
<path d="M17.4541 3.44667C16.495 2.49287 15.9664 1.26797 15.9668 0H11.6314V15.1556C11.5979 15.9757 11.2005 16.7525 10.5226 17.3225C9.8448 17.8924 8.93953 18.211 7.99745 18.2111C6.0051 18.2111 4.34949 16.7933 4.34949 15.0333C4.34949 12.9311 6.67857 11.3544 9.07781 12.0022V8.14C4.23724 7.57778 0 10.8533 0 15.0333C0 19.1033 3.87245 22 7.98342 22C12.389 22 15.9668 18.8833 15.9668 15.0333V7.34556C17.7249 8.44537 19.8356 9.03546 22 9.03222V5.25556C22 5.25556 19.3622 5.36556 17.4541 3.44667Z" fill="black"/>
</svg>
